<svg viewBox="0 0 543 135.992" xmlns="http://www.w3.org/2000/svg"><path d="M144.039 98.272V43.761h7.051l33.357 43.912V43.761h6.669v54.511h-7.051l-33.354-44.298v44.298h-6.672zm101.206-2.134c-4.395 1.68-9.137 2.516-14.219 2.516-19.743 0-29.618-9.465-29.618-28.4 0-17.916 9.53-26.876 28.587-26.876 5.467 0 10.551.765 15.25 2.291v6.098c-4.698-1.779-9.53-2.67-14.488-2.67-14.864 0-22.294 7.054-22.294 21.156 0 15.12 7.314 22.683 21.956 22.683 2.335 0 4.927-.307 7.775-.918V73.493h7.051v22.645zm11.246-18.907V43.765h7.047v33.466c0 10.47 5.211 15.711 15.633 15.711 10.418 0 15.628-5.241 15.628-15.711V43.765h7.051v33.466c0 14.287-7.561 21.427-22.679 21.427-15.12-.001-22.68-7.14-22.68-21.427zm64.989-33.469v48.795H350v5.716h-35.568V43.762h7.048zm38.695 54.512h-7.319l27.102-61.702 27.102 61.702h-7.812l-7.056-17.155h-18.025l1.943-5.713h13.723l-10.179-24.705-19.479 47.573zm54.319-.001V43.762h23.252c10.371 0 15.555 4.36 15.555 13.075 0 7.092-5.068 12.34-15.209 15.742l18.716 25.695h-9.302l-17.343-24.51v-4.61c10.418-1.656 15.625-5.658 15.625-12.009 0-5.03-2.896-7.55-8.687-7.55h-15.556v48.679h-7.051v-.001zm68.732-54.511v38.807c0 10.47-6.162 15.704-18.49 15.704v-5.716c7.625 0 11.439-3.332 11.439-9.988V43.762h7.051zm12.579 52.604v-6.481c5.72 2.031 11.893 3.053 18.528 3.053 9.377 0 14.069-3.432 14.069-10.298 0-5.836-3.459-8.765-10.37-8.765h-7.018c-11.407 0-17.117-4.951-17.117-14.864 0-10.418 7.311-15.632 21.926-15.632 6.35 0 12.257.768 17.725 2.291v6.481c-5.468-2.035-11.374-3.052-17.725-3.052-9.913 0-14.867 3.305-14.867 9.912 0 5.842 3.353 8.765 10.059 8.765h7.018c11.609 0 17.421 4.959 17.421 14.864 0 10.677-7.037 16.015-21.12 16.015-6.636-.001-12.809-.766-18.529-2.289z" fill="#CBCBCB"/><path d="M145.823 96.492V41.981h7.051l33.354 43.912V41.981h6.672v54.511h-7.051l-33.357-44.298v44.298h-6.669zm101.205-2.136c-4.395 1.68-9.134 2.517-14.218 2.517-19.743 0-29.618-9.465-29.618-28.4 0-17.916 9.53-26.876 28.59-26.876 5.463 0 10.548.765 15.246 2.291v6.098c-4.698-1.779-9.53-2.67-14.485-2.67-14.864 0-22.297 7.054-22.297 21.156 0 15.12 7.318 22.684 21.956 22.684 2.336 0 4.931-.305 7.778-.919V71.712h7.048v22.644zm11.246-18.907v-33.47h7.048v33.47c0 10.469 5.21 15.707 15.631 15.707 10.418 0 15.63-5.238 15.63-15.707v-33.47h7.051v33.47c0 14.286-7.561 21.423-22.681 21.423-15.119 0-22.679-7.137-22.679-21.423zm64.991-33.471v48.795h28.515v5.716h-35.563V41.978h7.048zm38.693 54.513h-7.317l27.102-61.706 27.1 61.706h-7.815l-7.051-17.155h-18.03l1.946-5.716h13.72l-10.176-24.705-19.479 47.576zm54.32.001V41.981h23.254c10.37 0 15.55 4.357 15.55 13.075 0 7.089-5.065 12.34-15.206 15.741l18.715 25.695h-9.305l-17.34-24.51v-4.613c10.418-1.656 15.63-5.654 15.63-12.009 0-5.03-2.899-7.546-8.695-7.546h-15.553v48.679h-7.05v-.001z"/><path d="M485.009 41.978v38.807c0 10.473-6.164 15.704-18.49 15.704v-5.716c7.624 0 11.439-3.333 11.439-9.988V41.978h7.051zm12.578 52.605v-6.481c5.719 2.031 11.893 3.053 18.528 3.053 9.376 0 14.068-3.431 14.068-10.295 0-5.839-3.459-8.765-10.37-8.765h-7.016c-11.409 0-17.119-4.954-17.119-14.867 0-10.418 7.308-15.632 21.926-15.632 6.352 0 12.259.768 17.725 2.291v6.481c-5.466-2.035-11.373-3.053-17.725-3.053-9.913 0-14.867 3.305-14.867 9.912 0 5.842 3.35 8.766 10.06 8.766h7.016c11.61 0 17.421 4.958 17.421 14.867 0 10.674-7.037 16.011-21.119 16.011-6.635-.001-12.81-.765-18.528-2.288z" fill="#B52E31"/><path d="M418.991 127.765h1.498v-1.236c.344.463.668.8.97 1.01.507.355 1.129.532 1.866.532 1.316 0 2.346-.505 3.089-1.516.741-1.011 1.113-2.28 1.113-3.807 0-1.612-.376-2.832-1.126-3.659-.752-.827-1.732-1.241-2.94-1.241-.58 0-1.117.122-1.612.365a3.61 3.61 0 0 0-1.278 1.06v-4.809h-1.579l-.001 13.301zm4.233-1.128c-1.171 0-1.971-.532-2.4-1.597-.229-.565-.344-1.302-.344-2.211 0-1.257.28-2.159.838-2.707.559-.547 1.209-.821 1.952-.821.85 0 1.495.334 1.932 1.001s.656 1.51.656 2.526c0 1.143-.218 2.063-.656 2.761-.439.699-1.099 1.048-1.978 1.048zm9.612-.665l-2.589-7.871h-1.841l3.573 9.947c-.084.216-.218.546-.404.99s-.295.69-.325.738a1.4 1.4 0 0 1-.355.365c-.141.099-.362.149-.663.149-.096 0-.207-.009-.332-.027a5.649 5.649 0 0 1-.614-.144v1.48c.18.048.332.081.456.099a3.9 3.9 0 0 0 .528.027c.937 0 1.599-.271 1.983-.812.383-.541 1.045-2.044 1.982-4.507.397-1.047.89-2.401 1.48-4.062a541.612 541.612 0 0 1 1.525-4.242h-1.796l-2.608 7.87z"/><path d="M71.663 0L8 22.405l10.06 83.409 53.671 29.499 53.947-29.899 10.057-83.406L71.663 0z" fill="#B2B2B2"/><path d="M129.385 26.828L71.515 7.094v121.17l48.498-26.84 9.372-74.596z" fill="#B52E31"/><path d="M15.144 27.184l8.62 74.597 47.749 26.484V7.092L15.144 27.184z" fill="#E23237"/><path d="M84.928 67.362L71.62 39.571 59.904 67.363h25.024v-.001zm5.074 11.687H54.725l-7.892 19.74-14.68.271 39.362-87.566 40.734 87.566H98.642l-8.64-20.011z" fill="#F2F2F2"/><path d="M71.515 11.494l.105 28.076 13.295 27.814h-13.37l-.03 11.647 18.487.018 8.641 20.015 14.047.261-41.175-87.831z" fill="#B2B2B2"/><path d="M475.155 127.242c-4.774 0-7.32-3.732-7.32-7.101 0-3.941 3.209-7.312 7.772-7.312 4.414 0 7.175 3.46 7.175 7.101 0 3.55-2.73 7.312-7.627 7.312zm3.782-2.447c.723-.95.9-2.136.9-3.31 0-2.62-1.261-7.625-4.978-7.625-.992 0-1.979.385-2.699 1.014-1.171 1.041-1.382 2.35-1.382 3.632 0 2.953 1.471 7.811 5.095 7.811 1.176.001 2.373-.564 3.064-1.522z"/><linearGradient gradientTransform="matrix(1 0 0 -1 0 175.89)" gradientUnits="userSpaceOnUse" id="a" x1="475.308" x2="475.308" y1="65.419" y2="55.926"><stop offset="0" stop-color="#fff" stop-opacity=".15"/><stop offset="1" stop-color="#fff" stop-opacity="0"/></linearGradient><path d="M475.155 127.242c-4.774 0-7.32-3.732-7.32-7.101 0-3.941 3.209-7.312 7.772-7.312 4.414 0 7.175 3.46 7.175 7.101 0 3.55-2.73 7.312-7.627 7.312zm3.782-2.447c.723-.95.9-2.136.9-3.31 0-2.62-1.261-7.625-4.978-7.625-.992 0-1.979.385-2.699 1.014-1.171 1.041-1.382 2.35-1.382 3.632 0 2.953 1.471 7.811 5.095 7.811 1.176.001 2.373-.564 3.064-1.522z" fill="url(#a)"/><path d="M520.425 126.825l.889-.887-1.656-.206a.823.823 0 0 1-.726-.83v-17.589c0-.217.086-.419.229-.564l1.096-1.093h-4.962l-1.283 1.282h1.923v18.231c0 .22-.089.42-.231.565l-1.094 1.092h5.815v-.001z"/><linearGradient gradientTransform="matrix(1 0 0 -1 0 175.89)" gradientUnits="userSpaceOnUse" id="b" x1="517.663" x2="517.663" y1="73.833" y2="62.083"><stop offset="0" stop-color="#fff" stop-opacity=".15"/><stop offset="1" stop-color="#fff" stop-opacity="0"/></linearGradient><path d="M520.425 126.825l.889-.887-1.656-.206a.823.823 0 0 1-.726-.83v-17.589c0-.217.086-.419.229-.564l1.096-1.093h-4.962l-1.283 1.282h1.923v18.231c0 .22-.089.42-.231.565l-1.094 1.092h5.815v-.001z" fill="url(#b)" opacity=".5"/><path d="M530.578 125.692c-2.665 0-5.119-1.923-5.998-5.336l9.209-3.722c-.496-1.775-1.892-3.804-5.524-3.804-2.995 0-6.652 2.278-6.652 6.921 0 3.657 2.449 7.492 7.117 7.492.969 0 2.483-.061 4.027-1.17a6.626 6.626 0 0 0 1.494-1.44c-1.031.509-2.127 1.059-3.673 1.059zm-2.866-11.846c1.636 0 2.998 1.355 2.998 2.554 0 .42-.3.601-.876.811l-5.462 2.214c-.847-4.511 2.1-5.579 3.34-5.579z"/><linearGradient gradientTransform="matrix(1 0 0 -1 0 175.89)" gradientUnits="userSpaceOnUse" id="c" x1="527.932" x2="527.932" y1="65.419" y2="55.926"><stop offset="0" stop-color="#fff" stop-opacity=".15"/><stop offset="1" stop-color="#fff" stop-opacity="0"/></linearGradient><path d="M530.578 125.692c-2.665 0-5.119-1.923-5.998-5.336l9.209-3.722c-.496-1.775-1.892-3.804-5.524-3.804-2.995 0-6.652 2.278-6.652 6.921 0 3.657 2.449 7.492 7.117 7.492.969 0 2.483-.061 4.027-1.17a6.626 6.626 0 0 0 1.494-1.44c-1.031.509-2.127 1.059-3.673 1.059zm-2.866-11.846c1.636 0 2.998 1.355 2.998 2.554 0 .42-.3.601-.876.811l-5.462 2.214c-.847-4.511 2.1-5.579 3.34-5.579z" fill="url(#c)"/><path d="M491.619 127.242c-4.774 0-7.318-3.732-7.318-7.101 0-3.941 3.206-7.312 7.77-7.312 4.415 0 7.177 3.46 7.177 7.101-.001 3.55-2.731 7.312-7.629 7.312zm3.783-2.447c.723-.95.901-2.136.901-3.31 0-2.62-1.26-7.625-4.979-7.625-.991 0-1.977.385-2.699 1.014-1.169 1.041-1.382 2.35-1.382 3.632 0 2.953 1.471 7.811 5.094 7.811 1.177.001 2.374-.564 3.065-1.522z"/><linearGradient gradientTransform="matrix(1 0 0 -1 0 175.89)" gradientUnits="userSpaceOnUse" id="d" x1="491.774" x2="491.774" y1="65.304" y2="53.321"><stop offset="0" stop-color="#fff" stop-opacity=".15"/><stop offset="1" stop-color="#fff" stop-opacity="0"/></linearGradient><path d="M491.619 127.242c-4.774 0-7.318-3.732-7.318-7.101 0-3.941 3.206-7.312 7.77-7.312 4.415 0 7.177 3.46 7.177 7.101-.001 3.55-2.731 7.312-7.629 7.312zm3.783-2.447c.723-.95.901-2.136.901-3.31 0-2.62-1.26-7.625-4.979-7.625-.991 0-1.977.385-2.699 1.014-1.169 1.041-1.382 2.35-1.382 3.632 0 2.953 1.471 7.811 5.094 7.811 1.177.001 2.374-.564 3.065-1.522z" fill="url(#d)"/><path d="M511.232 125.974l-1.092-.846c-.333-.273-.801-.635-.801-1.303 0-.672.433-1.185.824-1.487 1.306-1.015 2.556-2.097 2.556-4.337 0-2.039-1.23-3.229-1.996-3.901h1.695l1.274-1.271h-6.236c-4.356 0-6.574 2.714-6.574 5.724 0 2.331 1.768 4.807 4.959 4.807h.901c-.115.323-.236.689-.236 1.11 0 .938.442 1.427.905 1.947-1.368.09-3.92.351-5.802 1.5-1.792 1.068-2.331 2.611-2.331 3.701 0 2.249 2.156 4.374 6.553 4.374 5.224 0 7.943-2.913 7.943-5.765 0-2.101-1.208-3.128-2.542-4.253zm-3.864-3.506c-2.494 0-3.85-3.1-3.85-5.455 0-2.238 1.327-3.232 2.716-3.232 2.67 0 4.052 3.471 4.052 5.58 0 2.604-2.09 3.107-2.918 3.107zm-.039 12.195c-3.246 0-5.346-1.553-5.346-3.71 0-2.151 1.944-2.883 2.612-3.126 1.272-.429 2.914-.485 3.191-.485.298 0 .449.002.691.029 2.312 1.65 3.311 2.462 3.311 4.01 0 1.729-1.551 3.282-4.459 3.282z"/><radialGradient cx="879.744" cy="-100.552" gradientTransform="matrix(.482 0 0 -.482 78.249 66.318)" gradientUnits="userSpaceOnUse" id="e" r="44.922"><stop offset="0" stop-color="#fff" stop-opacity=".08"/><stop offset="1" stop-color="#fff" stop-opacity="0"/></radialGradient><path d="M511.232 125.974l-1.092-.846c-.333-.273-.801-.635-.801-1.303 0-.672.433-1.185.824-1.487 1.306-1.015 2.556-2.097 2.556-4.337 0-2.039-1.23-3.229-1.996-3.901h1.695l1.274-1.271h-6.236c-4.356 0-6.574 2.714-6.574 5.724 0 2.331 1.768 4.807 4.959 4.807h.901c-.115.323-.236.689-.236 1.11 0 .938.442 1.427.905 1.947-1.368.09-3.92.351-5.802 1.5-1.792 1.068-2.331 2.611-2.331 3.701 0 2.249 2.156 4.374 6.553 4.374 5.224 0 7.943-2.913 7.943-5.765 0-2.101-1.208-3.128-2.542-4.253zm-3.864-3.506c-2.494 0-3.85-3.1-3.85-5.455 0-2.238 1.327-3.232 2.716-3.232 2.67 0 4.052 3.471 4.052 5.58 0 2.604-2.09 3.107-2.918 3.107zm-.039 12.195c-3.246 0-5.346-1.553-5.346-3.71 0-2.151 1.944-2.883 2.612-3.126 1.272-.429 2.914-.485 3.191-.485.298 0 .449.002.691.029 2.312 1.65 3.311 2.462 3.311 4.01 0 1.729-1.551 3.282-4.459 3.282z" fill="url(#e)"/><path d="M459.698 118.912l-1.283 1.284h3.85v5.414c-.884.288-2.305.6-4.458.6-5.804 0-10.009-5.118-10.009-10.863 0-5.238 3.447-8.912 8.178-8.912 2.746 0 4.663.891 6.289 2.434v1.77l2.929-2.93c-.672-.461-1.859-1.238-3.959-1.855-1.355-.397-2.955-.601-4.596-.601-7.94 0-12.103 5.831-12.103 10.951 0 7.358 5.381 11.343 11.606 11.343 4.309 0 7.692-.975 9.117-1.368v-5.608c0-.218.086-.423.228-.563l1.098-1.096h-6.887z"/><radialGradient cx="769.421" cy="-84.682" gradientTransform="matrix(.482 0 0 -.482 78.249 66.318)" gradientUnits="userSpaceOnUse" id="f" r="50.041"><stop offset="0" stop-color="#fff" stop-opacity=".08"/><stop offset="1" stop-color="#fff" stop-opacity="0"/></radialGradient><path d="M459.698 118.912l-1.283 1.284h3.85v5.414c-.884.288-2.305.6-4.458.6-5.804 0-10.009-5.118-10.009-10.863 0-5.238 3.447-8.912 8.178-8.912 2.746 0 4.663.891 6.289 2.434v1.77l2.929-2.93c-.672-.461-1.859-1.238-3.959-1.855-1.355-.397-2.955-.601-4.596-.601-7.94 0-12.103 5.831-12.103 10.951 0 7.358 5.381 11.343 11.606 11.343 4.309 0 7.692-.975 9.117-1.368v-5.608c0-.218.086-.423.228-.563l1.098-1.096h-6.887z" fill="url(#f)"/><path d="M534.326 113.034h.641v1.71h.214v-1.71h.64v-.215h-1.494l-.001.215zm3.336-.215l-.665 1.627-.662-1.627h-.3v1.925h.214v-1.605l.668 1.605h.161l.667-1.605v1.605h.215v-1.925h-.298z"/><path fill="none" d="M430.617 91.221h117.608v56.667H430.617z"/></svg>